# xmcd
#
# Track frame offsets: 
#        150
#        18979
#        43109
#        65135
#        80432
#        100041
#        127069
#        149213
#        173336
#        195905
#        245022
#        303982
#
# Disc length: 4591 seconds
#
# Revision: 0
# Processed by: cddbd v1.5.2PL0 Copyright (c) Steve Scherf et al.
# Submitted via: ExactAudioCopy v1.0b3
#
DISCID=a411ed0c
DTITLE=Gregg Allman - All My Friends: Celebrating The Songs and Voice Of
DTITLE=Gregg Allman [CD2]
DYEAR=2014
DGENRE=Blue-Rock
TTITLE0=Trace Adkins - Trouble No More
TTITLE1=Vince Gill - Multi-Colored Lady
TTITLE2=Martina McBride - All My Friends
TTITLE3=Pat Monahan and Martina McBride - Can You Fool
TTITLE4=Eric Church - Ain't Wastin' Time No More
TTITLE5=Eric Church - Win, Lose or Draw
TTITLE6=Jackson Browne and Gregg Allman - These Days
TTITLE7=Jackson Browne and Gregg Allman - Melissa
TTITLE8=Vince Gill, Zac Brown and Gregg Allman - Midnight Rider
TTITLE9=The Allman Brothers Band - Dreams
TTITLE10=The Allman Brothers Band - Whipping Post
TTITLE11=Full Cast - Will the Circle Be Unbroken
EXTD=
EXTT0=
EXTT1=
EXTT2=
EXTT3=
EXTT4=
EXTT5=
EXTT6=
EXTT7=
EXTT8=
EXTT9=
EXTT10=
EXTT11=
PLAYORDER=
